<svg width="100%" height="100%" viewBox="0 0 200 200" version="1.1" xmlns="http://www.w3.org/2000/svg" xmlns:xlink="http://www.w3.org/1999/xlink" xml:space="preserve" xmlns:serif="http://www.serif.com/" style="fill-rule:evenodd;clip-rule:evenodd;stroke-linejoin:round;stroke-miterlimit:2;"><g id="Layer1"><path d="M64.629,82.377l-19.399,-27.901c-1.744,-2.509 -1.441,-5.906 0.719,-8.066c2.16,-2.16 5.557,-2.464 8.066,-0.72l28.335,19.696l-0.555,4.962c-0.653,5.831 -5.201,10.464 -11.019,11.225l-6.147,0.804Zm52.991,-16.991l28.345,-19.703c2.509,-1.744 5.906,-1.44 8.066,0.72c2.16,2.16 2.463,5.557 0.72,8.065l-19.4,27.91l-6.157,-0.805c-5.818,-0.761 -10.366,-5.394 -11.019,-11.225l-0.555,-4.962Zm16.551,51.436l20.58,29.607c1.743,2.509 1.44,5.906 -0.72,8.066c-2.16,2.16 -5.557,2.463 -8.066,0.719l-28.501,-19.811l0.734,-6.683c0.642,-5.842 5.194,-10.488 11.021,-11.25l4.952,-0.648Zm-51.574,18.535l-28.506,19.843c-2.508,1.746 -5.907,1.444 -8.068,-0.715c-2.161,-2.16 -2.465,-5.558 -0.721,-8.068l20.571,-29.594l4.969,0.649c5.825,0.761 10.376,5.404 11.021,11.243l0.734,6.642Z" style="fill-opacity:0.3;"/><path d="M88.508,127.981c-0.984,-8.901 -7.921,-15.978 -16.8,-17.138l-46.47,-6.074c-2.636,-0.344 -4.608,-2.59 -4.608,-5.249c0,-2.658 1.972,-4.904 4.607,-5.249l46.406,-6.069c8.869,-1.16 15.801,-8.222 16.796,-17.11l6.285,-56.152c0.3,-2.679 2.565,-4.705 5.261,-4.705c2.696,-0 4.961,2.026 5.261,4.705l6.285,56.152c0.995,8.888 7.927,15.95 16.796,17.11l46.428,6.072c2.636,0.345 4.607,2.591 4.607,5.249c-0,2.658 -1.971,4.904 -4.607,5.249l-46.403,6.069c-8.882,1.162 -15.82,8.244 -16.799,17.149l-6.244,56.799c-0.295,2.683 -2.561,4.715 -5.26,4.715c-2.7,0.001 -4.967,-2.029 -5.263,-4.712l-6.278,-56.811Z" style=""/></g><style>path{fill:#000}@media (prefers-color-scheme:dark){path{fill:#fff}}</style></svg>