<?xml version="1.0" encoding="UTF-8" standalone="no"?>
<!DOCTYPE svg PUBLIC "-//W3C//DTD SVG 1.1//EN" "http://www.w3.org/Graphics/SVG/1.1/DTD/svg11.dtd">
<svg width="100%" height="100%" viewBox="0 0 193 193" version="1.1" xmlns="http://www.w3.org/2000/svg" xmlns:xlink="http://www.w3.org/1999/xlink" xml:space="preserve" xmlns:serif="http://www.serif.com/" style="fill-rule:evenodd;clip-rule:evenodd;stroke-linejoin:round;stroke-miterlimit:2;">
    <g transform="matrix(1,0,0,1,-3.69696,-3.69696)">
        <g id="Layer1" transform="matrix(0.334278,0,0,0.334278,66.0253,62.734)">
            <g transform="matrix(0.670775,0.670775,-0.670775,0.670775,83.7151,-400.904)">
                <path d="M277.122,408.154L171.648,389.195C162.166,387.491 155.265,379.24 155.265,369.606C155.264,359.972 162.164,351.72 171.646,350.015L278.751,330.749L288.577,343.053C300.124,357.511 300.314,377.982 289.038,392.653L277.122,408.154ZM357.399,252.101L376.672,144.958C378.377,135.476 386.628,128.577 396.262,128.577C405.895,128.577 414.146,135.476 415.852,144.958L434.828,250.454L419.303,262.388C404.632,273.664 384.161,273.474 369.703,261.927L357.399,252.101ZM509.006,329.892L620.915,350.022C630.397,351.727 637.296,359.978 637.296,369.612C637.296,379.245 630.397,387.496 620.915,389.202L513.182,408.58L499.918,392.041C488.324,377.582 488.113,357.072 499.407,342.378L509.006,329.892ZM435.33,486.228L416.012,594.042C414.312,603.528 406.062,610.433 396.426,610.436C386.79,610.44 378.535,603.54 376.829,594.056L356.708,482.19L369.235,472.559C383.922,461.268 404.423,461.472 418.882,473.054L435.33,486.228Z" style="fill:white;fill-opacity:0.3;"/>
            </g>
            <g transform="matrix(1.29163,0,0,1.29163,-410.232,-367.346)">
                <path d="M369.68,435.522C367.402,414.908 351.335,398.517 330.77,395.829L223.141,381.762C217.036,380.964 212.47,375.762 212.47,369.605C212.469,363.449 217.035,358.246 223.14,357.448L330.62,343.391C351.16,340.704 367.215,324.348 369.519,303.762L384.077,173.709C384.772,167.505 390.018,162.813 396.262,162.813C402.505,162.813 407.751,167.505 408.446,173.709L423.004,303.762C425.308,324.348 441.364,340.704 461.903,343.391L569.435,357.455C575.539,358.253 580.105,363.455 580.105,369.612C580.105,375.768 575.539,380.97 569.435,381.769L461.963,395.825C441.39,398.516 425.321,414.919 423.054,435.543L408.593,567.095C407.91,573.309 402.661,578.014 396.409,578.016C390.158,578.018 384.906,573.316 384.219,567.102L369.68,435.522Z" style="fill:white;"/>
            </g>
        </g>
    </g>
</svg>
